<?xml version="1.0" encoding="UTF-8" standalone="no"?>
<svg
   xmlns:dc="http://purl.org/dc/elements/1.1/"
   xmlns:cc="http://creativecommons.org/ns#"
   xmlns:rdf="http://www.w3.org/1999/02/22-rdf-syntax-ns#"
   xmlns:svg="http://www.w3.org/2000/svg"
   xmlns="http://www.w3.org/2000/svg"
   xmlns:sodipodi="http://sodipodi.sourceforge.net/DTD/sodipodi-0.dtd"
   xmlns:inkscape="http://www.inkscape.org/namespaces/inkscape"
   version="1.0"
   x="0px"
   y="0px"
   viewBox="0 0 32 40"
   enable-background="new 0 0 32 32"
   xml:space="preserve"
   id="svg2"
   inkscape:version="0.91 r13725"
   sodipodi:docname="projet.svg"><metadata
     id="metadata14"><rdf:RDF><cc:Work
         rdf:about=""><dc:format>image/svg+xml</dc:format><dc:type
           rdf:resource="http://purl.org/dc/dcmitype/StillImage" /></cc:Work></rdf:RDF></metadata><defs
     id="defs12" /><sodipodi:namedview
     pagecolor="#ffffff"
     bordercolor="#666666"
     borderopacity="1"
     objecttolerance="10"
     gridtolerance="10"
     guidetolerance="10"
     inkscape:pageopacity="0"
     inkscape:pageshadow="2"
     inkscape:window-width="1366"
     inkscape:window-height="705"
     id="namedview10"
     showgrid="false"
     inkscape:zoom="5.9"
     inkscape:cx="-10.271186"
     inkscape:cy="20"
     inkscape:window-x="-8"
     inkscape:window-y="-8"
     inkscape:window-maximized="1"
     inkscape:current-layer="svg2" /><path
     d="m 25.781492,31.213898 c 0.398,1.086 -0.16,2.28 -1.246,2.675 -1.082,0.395 -2.281,-0.163 -2.672,-1.245 l -1.678,-4.61 4.44,0 1.156,3.18 z m -19.2410009,0.015 c -0.395,1.086 0.16,2.284 1.246,2.679 1.0859997,0.395 2.2849999,-0.163 2.6789999,-1.249 l 1.684,-4.625 -4.4449999,0 -1.164,3.195 z M 32.169492,4.0338983 c 0,-1.104 -0.896,-2 -2,-2 l -28.0000009,0 c -1.104,0 -2,0.896 -2,2 l 0,19.9999997 c 0,1.104 0.896,2 2,2 l 28.0000009,0 c 1.104,0 2,-0.896 2,-2 l 0,-19.9999997 z"
     id="path4"
     inkscape:connector-curvature="0"
     style="fill:#2c3e50;fill-opacity:1" /><path
     d="M 1.2478933,25.702315 C 0.24898532,25.157012 0.27118644,25.422803 0.27118644,14.009144 c 0,-9.5440389 0.0250277,-10.4907355 0.28916314,-10.9378812 C 1.1768058,2.0276856 0.55105258,2.0677354 16.229005,2.0684302 c 13.880429,6.152e-4 14.312207,0.010261 14.839037,0.3314877 1.117473,0.6813628 1.079961,0.2487267 1.028943,11.8669461 l -0.04614,10.506429 -0.554064,0.554032 -0.554066,0.554031 -14.615426,0.03712 C 3.63212,25.95072 1.6509053,25.922324 1.2478933,25.702315 Z"
     id="path3342"
     inkscape:connector-curvature="0" /><path
     d="M 1.2478933,25.702315 C 0.2490349,25.157039 0.27118644,25.422061 0.27118644,14.016949 0.27118644,2.4306127 0.23762142,2.7854526 1.3786948,2.3086817 1.8615216,2.1069438 4.2767455,2.0678996 16.240319,2.0684302 c 13.869208,6.152e-4 14.300903,0.010266 14.827723,0.3314877 1.117473,0.6813628 1.079961,0.2487267 1.028943,11.8669461 l -0.04614,10.506429 -0.554064,0.554032 -0.554066,0.554031 -14.615426,0.03712 C 3.63212,25.95072 1.6509053,25.922324 1.2478933,25.702315 Z"
     id="path3344"
     inkscape:connector-curvature="0"
     style="fill:#2c3e50;fill-opacity:1" /></svg>